<svg xmlns="http://www.w3.org/2000/svg" xmlns:xlink="http://www.w3.org/1999/xlink" width="18" height="18" viewBox="0 0 18 18">
    <defs>
        <path id="a" d="M0 0h18v18H0z"/>
        <path id="c" d="M0 0h18v18H0z"/>
    </defs>
    <g fill="none" fill-rule="evenodd">
        <g>
            <mask id="b" fill="#fff">
                <use xlink:href="#a"/>
            </mask>
            <path fill="#F3F3F3" d="M18 9A9 9 0 1 1 0 9a9 9 0 0 1 18 0" mask="url(#b)"/>
        </g>
        <path fill="#0052B4" d="M1.86 3.52A8.978 8.978 0 0 0 .31 6.653h4.682L1.86 3.521zM17.69 6.652a8.973 8.973 0 0 0-1.55-3.131l-3.132 3.131h4.682zM.31 11.348a8.973 8.973 0 0 0 1.55 3.131l3.132-3.131H.31zM14.48 1.86A8.976 8.976 0 0 0 11.348.31v4.682L14.48 1.86zM3.52 16.14c.92.707 1.98 1.24 3.132 1.55v-4.682l-3.131 3.131zM6.652.31a8.973 8.973 0 0 0-3.131 1.55l3.131 3.132V.31zM11.348 17.69a8.964 8.964 0 0 0 3.132-1.55l-3.132-3.132v4.682zM13.008 11.348l3.132 3.131a8.983 8.983 0 0 0 1.55-3.131h-4.682z"/>
        <g>
            <mask id="d" fill="#fff">
                <use xlink:href="#c"/>
            </mask>
            <path fill="#D80027" d="M17.924 7.826h-7.75V.076a9.14 9.14 0 0 0-2.348 0v7.75H.076a9.132 9.132 0 0 0 0 2.348h7.75v7.75a9.13 9.13 0 0 0 2.348 0v-7.75h7.75a9.13 9.13 0 0 0 0-2.348" mask="url(#d)"/>
        </g>
        <path fill="#D80027" d="M11.348 11.348l4.016 4.016c.185-.185.36-.378.529-.578l-3.438-3.438h-1.107zM6.652 11.348l-4.016 4.016c.184.184.378.36.578.529l3.438-3.439v-1.106zM6.652 6.652L2.636 2.636a8.775 8.775 0 0 0-.529.578l3.438 3.438h1.107zM11.348 6.652l4.016-4.016a8.775 8.775 0 0 0-.578-.529l-3.438 3.439v1.106z"/>
    </g>
</svg>
