<svg xmlns="http://www.w3.org/2000/svg" xmlns:xlink="http://www.w3.org/1999/xlink" width="18" height="18" viewBox="0 0 18 18">
    <defs>
        <path id="a" d="M0 0h18v18H0z"/>
        <path id="c" d="M0 .47h18v7.043H0z"/>
    </defs>
    <g fill="none" fill-rule="evenodd">
        <g>
            <mask id="b" fill="#fff">
                <use xlink:href="#a"/>
            </mask>
            <path fill="#F3F3F3" d="M18 9A9 9 0 1 1 0 9a9 9 0 0 1 18 0" mask="url(#b)"/>
        </g>
        <g transform="translate(0 5.4)">
            <mask id="d" fill="#fff">
                <use xlink:href="#c"/>
            </mask>
            <path fill="#0052B4" d="M17.44 6.73c.362-.975.56-2.029.56-3.13a8.981 8.981 0 0 0-.56-3.13H.56A8.981 8.981 0 0 0 0 3.6c0 1.101.198 2.155.56 3.13L9 7.513l8.44-.783z" mask="url(#d)"/>
        </g>
        <path fill="#D80027" d="M9 18a9.003 9.003 0 0 0 8.44-5.87H.56A9.004 9.004 0 0 0 9 18"/>
    </g>
</svg>
